# xmcd
#
# Track frame offsets:
#	150
#	17032
#	32421
#	46449
#	62613
#	81033
#	96647
#
# Disc length: 1512 seconds
#
# Revision: 0
# Processed by: cddbd v1.5.1PL2 Copyright (c) Steve Scherf et al.
# Submitted via: dBpowerAMP V4.0
#
DISCID=5105e607
DTITLE=Rob Chiossi - Cocktails and Dreams
DYEAR=1900
DGENRE=Country
TTITLE0=Last Call For Alcohol
TTITLE1=Different Plan
TTITLE2=Grain of Salt
TTITLE3=Hook, Line N Sinker
TTITLE4=Cozumel
TTITLE5=Sunshine's Down
TTITLE6=Invisible
EXTD=
EXTT0=
EXTT1=
EXTT2=
EXTT3=
EXTT4=
EXTT5=
EXTT6=
PLAYORDER=
